# xmcd
#
# Track frame offsets: 
#        150
#        20765
#        43125
#        63105
#        84947
#        107020
#        126380
#        146272
#
# Disc length: 2262 seconds
#
# Revision: 1
# Processed by: cddbd v1.5.2PL0 Copyright (c) Steve Scherf et al.
# Submitted via: ExactAudioCopy v1.0b3
#
DISCID=6608d408
DTITLE=Hermanos Moreno - Sabor y Ramance
DYEAR=1996
DGENRE=Salsa
TTITLE0=Mi Forma de Sentir
TTITLE1=La Casa en el Aire
TTITLE2=No Jueges Conmigo
TTITLE3=Tengo
TTITLE4=Yo no he podido Olvidarte
TTITLE5=Eres
TTITLE6=Lágrimas de Mujer
TTITLE7=Que Calor
EXTD=YEAR: 1996
EXTT0=
EXTT1=
EXTT2=
EXTT3=
EXTT4=
EXTT5=
EXTT6=
EXTT7=
PLAYORDER=
